<?xml version="1.0" encoding="UTF-8" standalone="no"?>
<svg
   xmlns:dc="http://purl.org/dc/elements/1.1/"
   xmlns:cc="http://creativecommons.org/ns#"
   xmlns:rdf="http://www.w3.org/1999/02/22-rdf-syntax-ns#"
   xmlns:svg="http://www.w3.org/2000/svg"
   xmlns="http://www.w3.org/2000/svg"
   xmlns:sodipodi="http://sodipodi.sourceforge.net/DTD/sodipodi-0.dtd"
   xmlns:inkscape="http://www.inkscape.org/namespaces/inkscape"
   version="1.1"
   x="0px"
   y="0px"
   viewBox="0 0 100 100"
   enable-background="new 0 0 100 100"
   xml:space="preserve"
   id="svg2"
   inkscape:version="0.91 r13725"
   sodipodi:docname="world.svg"><metadata
     id="metadata10"><rdf:RDF><cc:Work
         rdf:about=""><dc:format>image/svg+xml</dc:format><dc:type
           rdf:resource="http://purl.org/dc/dcmitype/StillImage" /><dc:title></dc:title></cc:Work></rdf:RDF></metadata><defs
     id="defs8" /><sodipodi:namedview
     pagecolor="#ffffff"
     bordercolor="#666666"
     borderopacity="1"
     objecttolerance="10"
     gridtolerance="10"
     guidetolerance="10"
     inkscape:pageopacity="0"
     inkscape:pageshadow="2"
     inkscape:window-width="690"
     inkscape:window-height="480"
     id="namedview6"
     showgrid="false"
     inkscape:zoom="2.36"
     inkscape:cx="50"
     inkscape:cy="50"
     inkscape:window-x="0"
     inkscape:window-y="0"
     inkscape:window-maximized="0"
     inkscape:current-layer="svg2" /><path
     id="path3344"
     d="m 49.457627,4.1525425 c -25.722805,0 -46.5762707,20.8534675 -46.5762707,46.5762725 0,25.722804 20.8534657,46.576271 46.5762707,46.576271 25.722804,0 46.576271,-20.853467 46.576271,-46.576271 0,-25.722805 -20.853467,-46.5762725 -46.576271,-46.5762725 z m 37.860157,42.3420655 -16.78016,0 C 70.025285,33.969825 67.25823,22.880439 63.138348,15.193236 c 13.01595,5.015417 22.589491,16.938943 24.179436,31.301372 z m -75.720314,8.468413 16.78016,0 C 28.892086,67.487803 31.657022,78.57719 35.779022,86.264392 22.760955,81.248975 13.187415,69.325449 11.59747,54.963021 Z m 16.78016,-8.468413 -16.78016,0 C 13.187415,32.132179 22.758838,20.208653 35.776905,15.193236 31.657022,22.880439 28.892086,33.969825 28.37763,46.494608 Z m 28.341661,33.661941 c -1.496792,3.29633 -3.169304,5.779692 -4.788888,7.28707 -1.109361,1.033146 -1.90751,1.393053 -2.472776,1.393053 -0.565267,0 -1.363415,-0.359907 -2.47066,-1.390936 C 45.367383,85.938359 43.694872,83.452879 42.19808,80.158667 39.212964,73.589295 37.2864,64.697462 36.852394,54.965138 l 25.2147,0 c -0.438241,9.732324 -2.362688,18.624157 -5.347803,25.191411 z M 36.850277,46.494608 c 0.436123,-9.73444 2.360569,-18.626274 5.345686,-25.195645 1.498909,-3.296331 3.169303,-5.779693 4.788887,-7.28707 1.109362,-1.033147 1.90751,-1.390937 2.472777,-1.390937 0.565266,0 1.363415,0.35779 2.472776,1.390937 1.619584,1.507377 3.292096,3.990739 4.788888,7.28707 2.985115,6.569371 4.909562,15.461205 5.345685,25.195645 l -25.214699,0 z M 63.138348,86.264392 C 67.25823,78.57719 70.025285,67.487803 70.537624,54.963021 l 16.78016,0 C 85.727839,69.325449 76.154298,81.248975 63.138348,86.264392 Z"
     inkscape:connector-curvature="0" /></svg>