<?xml version="1.0" encoding="UTF-8" standalone="no"?>
<!-- Created with Inkscape (http://www.inkscape.org/) -->

<svg
   xmlns:dc="http://purl.org/dc/elements/1.1/"
   xmlns:cc="http://creativecommons.org/ns#"
   xmlns:rdf="http://www.w3.org/1999/02/22-rdf-syntax-ns#"
   xmlns:svg="http://www.w3.org/2000/svg"
   xmlns="http://www.w3.org/2000/svg"
   xmlns:sodipodi="http://sodipodi.sourceforge.net/DTD/sodipodi-0.dtd"
   xmlns:inkscape="http://www.inkscape.org/namespaces/inkscape"
   width="100pt"
   height="100pt"
   viewBox="0 0 125 125"
   id="svg3362"
   version="1.1"
   inkscape:version="0.91 r13725"
   sodipodi:docname="antenna.svg">
  <defs
     id="defs3364" />
  <sodipodi:namedview
     id="base"
     pagecolor="#ffffff"
     bordercolor="#666666"
     borderopacity="1.0"
     inkscape:pageopacity="0.0"
     inkscape:pageshadow="2"
     inkscape:zoom="5.392"
     inkscape:cx="62.5"
     inkscape:cy="62.5"
     inkscape:document-units="px"
     inkscape:current-layer="layer1"
     showgrid="false"
     units="pt"
     inkscape:window-width="1536"
     inkscape:window-height="841"
     inkscape:window-x="-8"
     inkscape:window-y="-8"
     inkscape:window-maximized="1" />
  <metadata
     id="metadata3367">
    <rdf:RDF>
      <cc:Work
         rdf:about="">
        <dc:format>image/svg+xml</dc:format>
        <dc:type
           rdf:resource="http://purl.org/dc/dcmitype/StillImage" />
        <dc:title></dc:title>
      </cc:Work>
    </rdf:RDF>
  </metadata>
  <g
     inkscape:label="Layer 1"
     inkscape:groupmode="layer"
     id="layer1"
     transform="translate(0,-927.36222)">
    <g
       transform="matrix(1.250371,0,0,1.2676828,-2.3367955,-283.19271)"
       id="g3338">
      <path
         inkscape:connector-curvature="0"
         style="color:#000000;font-style:normal;font-variant:normal;font-weight:normal;font-stretch:normal;font-size:medium;line-height:normal;font-family:Sans;-inkscape-font-specification:Sans;text-indent:0;text-align:start;text-decoration:none;text-decoration-line:none;letter-spacing:normal;word-spacing:normal;text-transform:none;direction:ltr;block-progression:tb;writing-mode:lr-tb;baseline-shift:baseline;text-anchor:start;display:inline;overflow:visible;visibility:visible;opacity:1;fill:#000000;fill-opacity:1;stroke:none;stroke-width:27.85713387;marker:none;enable-background:accumulate"
         d="m 29.78125,4.96875 a 3.0003,3.0003 0 0 0 -2,1 C 22.977603,11.26868 20,18.2628 20,26 c 0,7.7372 2.977603,14.70007 7.78125,20 a 3.0003,3.0003 0 1 0 4.4375,-4.03125 C 28.335987,37.68484 26,32.21368 26,26 26,19.78632 28.335987,14.28391 32.21875,10 a 3.0003,3.0003 0 0 0 -2.4375,-5.03125 z m 40.03125,0 A 3.0003,3.0003 0 0 0 67.78125,10 C 71.664013,14.28391 74,19.78632 74,26 74,32.21368 71.664013,37.68484 67.78125,41.96875 A 3.0003,3.0003 0 1 0 72.21875,46 C 77.022397,40.70007 80,33.7372 80,26 80,18.2628 77.022397,11.26868 72.21875,5.96875 a 3.0003,3.0003 0 0 0 -2.40625,-1 z m -30.9375,5 A 3.0003,3.0003 0 0 0 37.0625,10.6875 C 32.730397,14.36116 30,19.90723 30,26 c 0,6.09277 2.730397,11.60759 7.0625,15.28125 a 3.0049195,3.0049195 0 1 0 3.875,-4.59375 C 37.914255,34.12376 36,30.30619 36,26 36,21.69381 37.914255,17.84499 40.9375,15.28125 A 3.0003,3.0003 0 0 0 38.875,9.96875 Z m 21.84375,0 a 3.0003,3.0003 0 0 0 -1.65625,5.3125 C 62.085745,17.84499 64,21.69381 64,26 c 0,4.30619 -1.914255,8.12376 -4.9375,10.6875 a 3.0049195,3.0049195 0 1 0 3.875,4.59375 C 67.269603,37.60759 70,32.09277 70,26 70,19.90723 67.269603,14.36116 62.9375,10.6875 A 3.0003,3.0003 0 0 0 60.71875,9.96875 Z M 50,16 c -5.487315,0 -10,4.51268 -10,10 0,5.48731 4.512685,10 10,10 5.487315,0 10,-4.51269 10,-10 0,-5.48732 -4.512685,-10 -10,-10 z m 0,6 c 2.244674,0 4,1.75532 4,4 0,2.24467 -1.755326,4 -4,4 -2.244674,0 -4,-1.75533 -4,-4 0,-2.24468 1.755326,-4 4,-4 z m -0.125,17 a 3.0003,3.0003 0 0 0 -2.625,1.78125 l -22,50 a 3.0003,3.0003 0 0 0 4.46875,3.65625 L 50,80.125 70.28125,94.4375 A 3.0003,3.0003 0 0 0 74.75,90.78125 l -22,-50 A 3.0003,3.0003 0 0 0 50.125,39 3.0003,3.0003 0 0 0 50,39 3.0003,3.0003 0 0 0 49.875,39 Z M 50,49.4375 57.84375,67.25 50,72.78125 42.15625,67.25 50,49.4375 Z m -10.3125,23.40625 5.125,3.625 -9.71875,6.84375 4.59375,-10.46875 z m 20.625,0 4.59375,10.46875 -9.71875,-6.84375 5.125,-3.625 z"
         transform="translate(0,952.36218)"
         id="path3340" />
    </g>
  </g>
</svg>
