<?xml version="1.0" encoding="UTF-8" standalone="no"?>
<svg
   xmlns:dc="http://purl.org/dc/elements/1.1/"
   xmlns:cc="http://creativecommons.org/ns#"
   xmlns:rdf="http://www.w3.org/1999/02/22-rdf-syntax-ns#"
   xmlns:svg="http://www.w3.org/2000/svg"
   xmlns="http://www.w3.org/2000/svg"
   xmlns:sodipodi="http://sodipodi.sourceforge.net/DTD/sodipodi-0.dtd"
   xmlns:inkscape="http://www.inkscape.org/namespaces/inkscape"
   version="1.1"
   x="0px"
   y="0px"
   viewBox="0 0 100 125"
   enable-background="new 0 0 100 100"
   xml:space="preserve"
   id="svg2"
   inkscape:version="0.91 r13725"
   sodipodi:docname="brandweer.svg"><metadata
     id="metadata14"><rdf:RDF><cc:Work
         rdf:about=""><dc:format>image/svg+xml</dc:format><dc:type
           rdf:resource="http://purl.org/dc/dcmitype/StillImage" /><dc:title></dc:title></cc:Work></rdf:RDF></metadata><defs
     id="defs12" /><sodipodi:namedview
     pagecolor="#ffffff"
     bordercolor="#666666"
     borderopacity="1"
     objecttolerance="10"
     gridtolerance="10"
     guidetolerance="10"
     inkscape:pageopacity="0"
     inkscape:pageshadow="2"
     inkscape:window-width="640"
     inkscape:window-height="480"
     id="namedview10"
     showgrid="false"
     inkscape:zoom="1.888"
     inkscape:cx="50"
     inkscape:cy="62.5"
     inkscape:window-x="0"
     inkscape:window-y="0"
     inkscape:window-maximized="0"
     inkscape:current-layer="svg2" /><path
     d="M65.176,11.533c-1.87,0-3.503,1.016-4.379,2.525l-9.47-0.05v-3.723h-2.964c0-2.314-2.515-5.285-6.09-5.285  c-3.482,0-6.634,2.717-6.634,6.821c0,1.948,1.118,3.688,2.106,4.282c-3.915,1.447-9.166,6.406-10.202,9.427  c-1.439,2.879,2.515,5.292,4.548,2.412c2.032-2.879,4.313-6.412,11.089-8.106l0.496-0.043v4.866  c-6.544,1.684-11.381,7.628-11.381,14.697V95h30.351V39.356c0-7.069-4.837-13.013-11.382-14.697v-5.52l0.196-0.017h9.334  c0.874,1.511,2.509,2.529,4.381,2.529h7.588V11.533H65.176z M42.179,14.372c-1.612,0-2.92-1.308-2.92-2.92  c0-1.613,1.308-2.92,2.92-2.92s2.92,1.307,2.92,2.92C45.099,13.064,43.791,14.372,42.179,14.372z"
     id="path4" /></svg>