<?xml version="1.0" encoding="UTF-8" standalone="no"?>
<svg
   xmlns:dc="http://purl.org/dc/elements/1.1/"
   xmlns:cc="http://creativecommons.org/ns#"
   xmlns:rdf="http://www.w3.org/1999/02/22-rdf-syntax-ns#"
   xmlns:svg="http://www.w3.org/2000/svg"
   xmlns="http://www.w3.org/2000/svg"
   xmlns:sodipodi="http://sodipodi.sourceforge.net/DTD/sodipodi-0.dtd"
   xmlns:inkscape="http://www.inkscape.org/namespaces/inkscape"
   version="1.1"
   x="0px"
   y="0px"
   viewBox="0 0 100 125"
   enable-background="new 0 0 100 100"
   xml:space="preserve"
   id="svg2"
   inkscape:version="0.91 r13725"
   sodipodi:docname="brzo.svg"><metadata
     id="metadata18"><rdf:RDF><cc:Work
         rdf:about=""><dc:format>image/svg+xml</dc:format><dc:type
           rdf:resource="http://purl.org/dc/dcmitype/StillImage" /><dc:title></dc:title></cc:Work></rdf:RDF></metadata><defs
     id="defs16" /><sodipodi:namedview
     pagecolor="#ffffff"
     bordercolor="#666666"
     borderopacity="1"
     objecttolerance="10"
     gridtolerance="10"
     guidetolerance="10"
     inkscape:pageopacity="0"
     inkscape:pageshadow="2"
     inkscape:window-width="1260"
     inkscape:window-height="765"
     id="namedview14"
     showgrid="false"
     inkscape:zoom="3.776"
     inkscape:cx="29.546773"
     inkscape:cy="73.239775"
     inkscape:window-x="0"
     inkscape:window-y="0"
     inkscape:window-maximized="0"
     inkscape:current-layer="svg2" /><path
     d="M13.754,84.186h72.493L50,21.404L13.754,84.186 M3.081,93.428C1.38,93.428,0,92.049,0,90.348  c0-0.541,0.143-1.072,0.413-1.541L47.332,7.54C47.883,6.587,48.899,6,50,6c1.102,0,2.118,0.587,2.669,1.54l46.919,81.267  c0.271,0.469,0.412,1,0.412,1.541c0,1.701-1.379,3.08-3.081,3.08H3.081z"
     id="path4" /><path
     d="M52.195,65.566c-0.103,1.137-1.055,2.008-2.195,2.008c-1.141,0-2.094-0.871-2.195-2.008L45.61,40.968  c-0.012-0.13-0.018-0.261-0.018-0.392c0-2.435,1.974-4.408,4.407-4.408c2.435,0,4.408,1.973,4.408,4.408  c0,0.131-0.007,0.262-0.019,0.392L52.195,65.566"
     id="path6" /><circle
     cx="50"
     cy="74.186"
     r="4.408"
     id="circle8" /></svg>