<?xml version="1.0" encoding="UTF-8" standalone="no"?>
<!-- Created with Inkscape (http://www.inkscape.org/) -->

<svg
   xmlns:dc="http://purl.org/dc/elements/1.1/"
   xmlns:cc="http://creativecommons.org/ns#"
   xmlns:rdf="http://www.w3.org/1999/02/22-rdf-syntax-ns#"
   xmlns:svg="http://www.w3.org/2000/svg"
   xmlns="http://www.w3.org/2000/svg"
   xmlns:sodipodi="http://sodipodi.sourceforge.net/DTD/sodipodi-0.dtd"
   xmlns:inkscape="http://www.inkscape.org/namespaces/inkscape"
   width="210mm"
   height="297mm"
   viewBox="0 0 744.09448819 1052.3622047"
   id="svg3390"
   version="1.1"
   inkscape:version="0.91 r13725"
   sodipodi:docname="gemeentehuizen.svg">
  <defs
     id="defs3392" />
  <sodipodi:namedview
     id="base"
     pagecolor="#ffffff"
     bordercolor="#666666"
     borderopacity="1.0"
     inkscape:pageopacity="0.0"
     inkscape:pageshadow="2"
     inkscape:zoom="0.35"
     inkscape:cx="375"
     inkscape:cy="520"
     inkscape:document-units="px"
     inkscape:current-layer="layer1"
     showgrid="false"
     inkscape:window-width="1920"
     inkscape:window-height="1001"
     inkscape:window-x="-9"
     inkscape:window-y="-9"
     inkscape:window-maximized="1" />
  <metadata
     id="metadata3395">
    <rdf:RDF>
      <cc:Work
         rdf:about="">
        <dc:format>image/svg+xml</dc:format>
        <dc:type
           rdf:resource="http://purl.org/dc/dcmitype/StillImage" />
        <dc:title></dc:title>
      </cc:Work>
    </rdf:RDF>
  </metadata>
  <g
     inkscape:label="Laag 1"
     inkscape:groupmode="layer"
     id="layer1">
    <path
       style="fill:#000000"
       d="m 122.71429,210.18297 0,-5.54291 4.12014,-5.45709 4.12015,-5.4571 1.87985,0 1.87986,0 0,-11.5 0,-11.5 1.25774,0 1.25775,0 2.54039,-6.57796 2.54039,-6.57795 0.90373,0 0.90372,0 2.54039,6.57795 2.54039,6.57796 1.25775,0 1.25775,0 0,4.43262 0,4.43261 -1.84803,0.58654 -1.84803,0.58654 -3.15197,3.92221 -3.15197,3.92221 0.0634,2.30864 0.0634,2.30863 0.8659,-2.14595 c 0.47624,-1.18027 2.50974,-3.78979 4.51888,-5.79893 l 3.65298,-3.65299 4.66773,0.67676 c 2.56725,0.37221 5.45523,1.08507 6.41773,1.58412 l 1.75,0.90736 0,1.07046 c 0,0.58876 1.125,2.40745 2.5,4.04154 l 2.5,2.97109 0,1.73214 c 0,0.95268 -0.62494,2.5868 -1.38875,3.63138 l -1.38876,1.89924 0.49871,1.29961 0.49871,1.29962 -1.63302,2.49227 -1.633,2.49228 -2.10862,0 -2.10861,0 0.53651,4 0.53651,4 -3.40484,0 -3.40484,0 0,-5.48497 0,-5.48498 -3.08578,-5.01502 c -1.69717,-2.75827 -3.45858,-5.01503 -3.91422,-5.01503 -0.45565,0 -2.21705,2.25676 -3.91423,5.01503 l -3.08577,5.01502 0,5.48498 0,5.48497 -8.5,0 -8.5,0 0,-5.5429 z m 21,-0.9571 0,-2.5 3,0 3,0 0,2.5 0,2.5 -3,0 -3,0 0,-2.5 z"
       id="path3379"
       inkscape:connector-curvature="0" />
  </g>
</svg>
