<?xml version="1.0" standalone="no"?>
<!DOCTYPE svg PUBLIC "-//W3C//DTD SVG 20010904//EN"
 "http://www.w3.org/TR/2001/REC-SVG-20010904/DTD/svg10.dtd">
<svg version="1.0" xmlns="http://www.w3.org/2000/svg"
 width="150.000000pt" height="150.000000pt" viewBox="0 0 150.000000 150.000000"
 preserveAspectRatio="xMidYMid meet">
<metadata>
Created by potrace 1.13, written by Peter Selinger 2001-2015
</metadata>
<g transform="translate(0.000000,150.000000) scale(0.100000,-0.100000)"
fill="#000000" stroke="none">
<path d="M670 1476 c0 -2 7 -20 15 -39 35 -85 13 -141 -103 -261 -114 -118
-137 -165 -136 -271 0 -62 5 -89 22 -122 12 -24 18 -43 13 -43 -16 0 -70 50
-76 70 -4 11 -12 20 -18 20 -7 0 -56 -29 -110 -65 l-97 -65 0 -110 0 -109 52
-45 c29 -24 156 -130 283 -235 196 -162 232 -188 245 -177 8 7 135 112 283
234 259 216 267 223 267 258 0 33 -2 35 -17 23 -10 -8 -136 -112 -280 -231
-263 -218 -263 -218 -263 -184 0 30 9 42 85 106 46 39 102 86 124 103 22 18
110 90 195 161 148 123 156 132 156 166 0 34 -3 37 -148 133 -82 53 -151 97
-153 97 -3 0 -5 -15 -6 -34 -2 -85 -52 -159 -157 -235 -33 -25 -66 -52 -73
-60 -17 -22 -16 -71 0 -71 48 0 68 -94 29 -132 -31 -32 -97 -31 -123 1 -29 36
-25 88 10 120 26 24 28 31 24 78 -8 80 10 116 102 208 93 94 111 130 101 207
l-7 49 26 -17 c14 -9 25 -20 25 -25 0 -5 5 -9 10 -9 16 0 12 85 -6 130 -10 24
-32 52 -58 70 l-41 31 -5 -73 c-3 -40 -11 -84 -18 -96 -8 -13 -49 -62 -92
-108 -111 -120 -137 -187 -110 -284 l9 -35 -34 37 c-37 40 -55 90 -55 159 0
75 26 130 106 225 82 99 110 164 98 230 -7 39 -2 40 40 5 18 -15 19 -14 13 43
-7 72 -42 128 -97 156 -39 20 -50 23 -50 16z"/>
</g>
</svg>
