<?xml version="1.0" standalone="no"?>
<!DOCTYPE svg PUBLIC "-//W3C//DTD SVG 20010904//EN"
 "http://www.w3.org/TR/2001/REC-SVG-20010904/DTD/svg10.dtd">
<svg version="1.0" xmlns="http://www.w3.org/2000/svg"
 width="461.000000pt" height="461.000000pt" viewBox="0 0 461.000000 461.000000"
 preserveAspectRatio="xMidYMid meet">
<metadata>
Created by potrace 1.13, written by Peter Selinger 2001-2015
</metadata>
<g transform="translate(0.000000,461.000000) scale(0.100000,-0.100000)"
fill="#000000" stroke="none">
<path d="M2465 4461 c-34 -9 -73 -48 -380 -386 -120 -132 -253 -277 -296 -321
-72 -74 -79 -85 -79 -122 0 -49 35 -95 86 -114 l35 -12 -3 -85 -3 -84 -342
-240 -343 -240 0 -91 0 -91 -34 -27 c-40 -32 -52 -74 -36 -123 22 -66 45 -75
200 -75 158 0 177 8 199 79 10 35 9 46 -5 76 -9 20 -25 40 -35 46 -13 6 -19
20 -19 42 1 30 12 40 202 172 111 77 205 142 210 143 4 2 8 -80 8 -182 0 -218
-7 -206 124 -206 l86 0 0 -1135 0 -1135 -64 0 c-54 0 -69 -4 -94 -25 -36 -30
-45 -69 -26 -113 25 -60 44 -63 420 -60 l336 3 29 33 c40 44 40 93 0 133 -27
26 -36 29 -95 29 l-66 0 0 1135 0 1135 91 0 c143 0 129 -50 129 455 l0 435 33
13 c45 20 68 49 74 96 10 70 -44 123 -138 136 l-49 7 0 156 0 157 579 -579
578 -578 71 -2 c95 -1 107 10 106 105 l-1 69 -99 102 c-54 57 -358 365 -674
686 l-576 583 -54 4 c-30 2 -68 1 -85 -4z m95 -61 c25 -14 43 -71 31 -101 -32
-85 -131 -60 -131 32 0 63 49 96 100 69z m-165 -130 c4 -11 17 -33 30 -48 l24
-28 -218 -218 -217 -217 -57 3 -57 3 237 262 c131 144 241 262 245 262 4 1 10
-8 13 -19z m883 -595 l602 -609 0 -44 0 -43 -37 7 c-34 5 -106 74 -640 607
l-602 601 30 33 c16 19 29 41 29 49 0 9 4 14 8 12 5 -1 279 -277 610 -613z
m-742 495 c12 0 14 -35 14 -205 l0 -205 -30 0 -30 0 0 211 c0 188 2 210 16
205 9 -3 22 -6 30 -6z m-116 -260 l0 -150 -152 0 -153 0 150 150 c82 83 151
150 152 150 2 0 3 -67 3 -150z m298 -246 c27 -19 28 -38 2 -64 -19 -19 -33
-20 -458 -20 -380 0 -440 2 -460 16 -26 18 -28 41 -5 66 15 17 43 18 457 18
383 0 444 -2 464 -16z m-88 -564 l0 -410 -362 2 -363 3 -5 210 c-5 202 -6 210
-25 213 -13 2 -108 -58 -265 -168 -134 -94 -252 -178 -262 -187 -10 -9 -18
-29 -18 -45 0 -29 0 -29 -57 -26 l-58 3 -3 61 -3 62 346 241 345 242 0 104 0
105 365 0 365 0 0 -410z m-1251 -504 c18 -19 22 -32 17 -51 l-7 -26 -122 3
-122 3 -3 29 c-6 49 27 66 129 66 78 0 88 -2 108 -24z m1021 -1146 l0 -1170
95 0 c76 0 97 -3 101 -15 4 -8 1 -22 -6 -30 -19 -22 -641 -22 -660 0 -27 33
-5 44 92 47 l93 3 3 1168 2 1167 140 0 140 0 0 -1170z"/>
<path d="M1224 2268 c-91 -99 -136 -207 -135 -326 0 -96 21 -153 69 -194 64
-54 163 -49 223 11 48 47 62 102 57 213 -4 74 -9 96 -40 160 -20 40 -58 97
-85 127 l-48 53 -41 -44z m84 -122 c46 -69 66 -144 59 -229 -5 -81 -27 -118
-79 -131 -46 -12 -88 9 -110 54 -23 44 -24 151 -3 211 21 59 77 150 90 146 5
-2 25 -25 43 -51z"/>
</g>
</svg>
