<?xml version="1.0" encoding="UTF-8" standalone="no"?>
<svg
   xmlns:dc="http://purl.org/dc/elements/1.1/"
   xmlns:cc="http://creativecommons.org/ns#"
   xmlns:rdf="http://www.w3.org/1999/02/22-rdf-syntax-ns#"
   xmlns:svg="http://www.w3.org/2000/svg"
   xmlns="http://www.w3.org/2000/svg"
   xmlns:sodipodi="http://sodipodi.sourceforge.net/DTD/sodipodi-0.dtd"
   xmlns:inkscape="http://www.inkscape.org/namespaces/inkscape"
   version="1.1"
   x="0px"
   y="0px"
   viewBox="0 0 100 125"
   enable-background="new 0 0 100 100"
   xml:space="preserve"
   id="svg2"
   inkscape:version="0.91 r13725"
   sodipodi:docname="rwzi.svg"><metadata
     id="metadata14"><rdf:RDF><cc:Work
         rdf:about=""><dc:format>image/svg+xml</dc:format><dc:type
           rdf:resource="http://purl.org/dc/dcmitype/StillImage" /><dc:title></dc:title></cc:Work></rdf:RDF></metadata><defs
     id="defs12" /><sodipodi:namedview
     pagecolor="#ffffff"
     bordercolor="#666666"
     borderopacity="1"
     objecttolerance="10"
     gridtolerance="10"
     guidetolerance="10"
     inkscape:pageopacity="0"
     inkscape:pageshadow="2"
     inkscape:window-width="640"
     inkscape:window-height="480"
     id="namedview10"
     showgrid="false"
     inkscape:zoom="1.888"
     inkscape:cx="50"
     inkscape:cy="62.5"
     inkscape:window-x="0"
     inkscape:window-y="0"
     inkscape:window-maximized="0"
     inkscape:current-layer="svg2" /><path
     d="M95,82.262c0,0-1.552-17.167-11.247-26.861c-3.936-3.937-10.084-6.041-15.999-7.151c0.951-3.084,1.463-6.641,1.463-10.345  c0-5.171-0.993-10.062-2.795-13.771c-2.004-4.124-4.822-6.396-7.935-6.396c-0.087,0-0.173,0.009-0.259,0.013v-0.013H15.729  c-3.113,0-5.932,2.271-7.936,6.396C5.992,27.842,5,32.733,5,37.904c0,5.172,0.992,10.063,2.794,13.771  c2.004,4.124,4.822,6.396,7.936,6.396h42.499V58.06c0.086,0.003,0.172,0.012,0.259,0.012c1.546,0,3.021-0.563,4.357-1.632  c2.021,1.112,3.716,3.148,3.716,6.846c0,9.179,0,18.977,0,18.977H95z M58.487,21.358c3.362,0,7.109,6.795,7.109,16.546  c0,3.779-0.563,7.11-1.448,9.778c-4.891-0.63-9.237-0.66-11.517-0.615c-0.771-2.559-1.255-5.669-1.255-9.163  C51.377,28.153,55.124,21.358,58.487,21.358z M15.729,54.452c-3.363,0-7.11-6.797-7.11-16.548s3.747-16.546,7.11-16.546h36.239  c-0.604,0.801-1.166,1.729-1.675,2.775c-1.802,3.709-2.795,8.6-2.795,13.771c0,5.172,0.993,10.063,2.795,13.771  c0.509,1.047,1.07,1.975,1.675,2.776H15.729z"
     id="path4" /></svg>